<svg xmlns="http://www.w3.org/2000/svg" xmlns:xlink="http://www.w3.org/1999/xlink" width="1728" zoomAndPan="magnify" viewBox="0 0 1296 719.999996" height="960" preserveAspectRatio="xMidYMid meet" version="1.0"><defs><clipPath id="3054ff00ee"><path d="M 33 127.707031 L 1263 127.707031 L 1263 592 L 33 592 Z M 33 127.707031 " clip-rule="nonzero"/></clipPath></defs><g clip-path="url(#3054ff00ee)"><path fill="#ff0000" d="M 1023.996094 591.832031 L 109.140625 591.832031 C 51.230469 591.832031 19.796875 547.523438 38.953125 492.871094 L 132.144531 226.808594 C 151.289062 172.148438 213.761719 127.84375 271.679688 127.84375 L 1186.535156 127.84375 C 1244.457031 127.84375 1275.878906 172.148438 1256.734375 226.808594 L 1163.53125 492.871094 C 1144.386719 547.523438 1081.914062 591.832031 1023.996094 591.832031 Z M 1023.996094 591.832031 " fill-opacity="1" fill-rule="nonzero"/></g><path fill="#ffffff" d="M 260.664062 409.953125 C 261.003906 411.605469 261.300781 413.183594 261.550781 414.679688 C 261.789062 416.15625 261.917969 417.726562 261.917969 419.367188 C 261.917969 427.667969 259.59375 433.722656 254.9375 437.535156 C 252.445312 439.53125 249.417969 440.859375 245.855469 441.523438 C 242.308594 442.1875 238.292969 442.519531 233.816406 442.519531 C 226.523438 442.519531 220.46875 441.394531 215.648438 439.160156 C 210.847656 436.925781 207.285156 433.066406 204.976562 427.601562 C 200.003906 432.726562 194.160156 436.613281 187.4375 439.269531 C 180.734375 441.929688 173.488281 443.257812 165.6875 443.257812 C 155.070312 443.257812 145.34375 440.527344 136.480469 435.0625 C 127.617188 429.578125 120.574219 421.574219 115.359375 411.058594 C 110.132812 400.527344 107.53125 387.972656 107.53125 373.394531 C 107.53125 358.652344 110.261719 345.976562 115.726562 335.359375 C 121.191406 324.753906 128.4375 316.714844 137.476562 311.246094 C 146.503906 305.765625 156.421875 303.011719 167.203125 303.011719 C 173.644531 303.011719 179.765625 304.101562 185.554688 306.261719 C 191.363281 308.40625 196.679688 311.5625 201.507812 315.714844 L 201.507812 257.261719 C 202.835938 256.949219 205.273438 256.625 208.820312 256.300781 C 212.382812 255.960938 215.585938 255.785156 218.417969 255.785156 C 225.363281 255.785156 230.734375 256.449219 234.554688 257.777344 C 238.367188 259.109375 241.136719 261.472656 242.863281 264.867188 C 244.609375 268.265625 245.484375 273.121094 245.484375 279.417969 L 245.484375 399.5 C 245.484375 403.636719 246.058594 406.582031 247.222656 408.328125 C 248.402344 410.054688 250.636719 410.910156 253.941406 410.910156 C 256.601562 410.910156 258.835938 410.597656 260.664062 409.953125 Z M 151.765625 373.136719 C 151.765625 380.28125 152.957031 386.457031 155.347656 391.671875 C 157.757812 396.898438 161.117188 400.832031 165.429688 403.488281 C 169.757812 406.128906 174.570312 407.441406 179.867188 407.441406 C 184.003906 407.441406 187.890625 406.777344 191.535156 405.445312 C 195.203125 404.117188 198.523438 402.214844 201.507812 399.722656 L 201.507812 346.550781 C 195.203125 341.40625 187.898438 338.832031 179.609375 338.832031 C 174.144531 338.832031 169.324219 340.160156 165.171875 342.820312 C 161.035156 345.460938 157.757812 349.394531 155.347656 354.636719 C 152.957031 359.863281 151.765625 366.027344 151.765625 373.136719 Z M 151.765625 373.136719 " fill-opacity="1" fill-rule="nonzero"/><path fill="#ffffff" d="M 300.929688 287.875 C 292.804688 287.875 286.585938 286.339844 282.28125 283.257812 C 277.972656 280.183594 275.820312 275.578125 275.820312 269.449219 C 275.820312 263.316406 277.972656 258.730469 282.28125 255.675781 C 286.585938 252.601562 292.804688 251.058594 300.929688 251.058594 C 308.878906 251.058594 315.046875 252.601562 319.429688 255.675781 C 323.832031 258.730469 326.039062 263.316406 326.039062 269.449219 C 326.039062 275.578125 323.832031 280.183594 319.429688 283.257812 C 315.046875 286.339844 308.878906 287.875 300.929688 287.875 Z M 311.121094 442.519531 C 303.976562 442.519531 298.050781 441.46875 293.324219 439.382812 C 288.613281 437.3125 285.023438 433.722656 282.539062 428.601562 C 280.046875 423.457031 278.8125 416.40625 278.8125 407.441406 L 278.8125 306.003906 C 280.953125 305.691406 283.546875 305.367188 286.601562 305.042969 C 289.675781 304.703125 292.628906 304.527344 295.464844 304.527344 C 302.40625 304.527344 307.78125 305.191406 311.601562 306.519531 C 315.414062 307.832031 318.191406 310.175781 319.945312 313.574219 C 321.691406 316.972656 322.570312 321.828125 322.570312 328.125 L 322.570312 399.5 C 322.570312 403.636719 323.179688 406.582031 324.414062 408.328125 C 325.671875 410.054688 327.941406 410.910156 331.246094 410.910156 C 334.070312 410.910156 336.230469 410.597656 337.707031 409.953125 C 338.199219 411.605469 338.53125 413.183594 338.707031 414.679688 C 338.871094 416.15625 338.964844 417.726562 338.964844 419.367188 C 338.964844 427.667969 336.636719 433.722656 331.984375 437.535156 C 329.492188 439.53125 326.519531 440.859375 323.050781 441.523438 C 319.578125 442.1875 315.597656 442.519531 311.121094 442.519531 Z M 311.121094 442.519531 " fill-opacity="1" fill-rule="nonzero"/><path fill="#ffffff" d="M 503.28125 409.953125 C 503.625 411.605469 503.917969 413.183594 504.167969 414.679688 C 504.410156 416.15625 504.539062 417.726562 504.539062 419.367188 C 504.539062 427.667969 502.210938 433.722656 497.558594 437.535156 C 495.066406 439.53125 492.039062 440.859375 488.476562 441.523438 C 484.929688 442.1875 480.914062 442.519531 476.4375 442.519531 C 469.144531 442.519531 463.089844 441.394531 458.269531 439.160156 C 453.46875 436.925781 449.90625 433.066406 447.597656 427.601562 C 442.621094 432.726562 436.777344 436.613281 430.058594 439.269531 C 423.355469 441.929688 416.109375 443.257812 408.308594 443.257812 C 397.691406 443.257812 387.960938 440.527344 379.097656 435.0625 C 370.238281 429.578125 363.195312 421.574219 357.976562 411.058594 C 352.753906 400.527344 350.148438 387.972656 350.148438 373.394531 C 350.148438 358.652344 352.882812 345.976562 358.347656 335.359375 C 363.8125 324.753906 371.058594 316.714844 380.097656 311.246094 C 389.125 305.765625 399.039062 303.011719 409.820312 303.011719 C 416.265625 303.011719 422.386719 304.101562 428.175781 306.261719 C 433.980469 308.40625 439.296875 311.5625 444.125 315.714844 L 444.125 257.261719 C 445.457031 256.949219 447.894531 256.625 451.4375 256.300781 C 455 255.960938 458.203125 255.785156 461.039062 255.785156 C 467.980469 255.785156 473.355469 256.449219 477.175781 257.777344 C 480.988281 259.109375 483.757812 261.472656 485.484375 264.867188 C 487.230469 268.265625 488.105469 273.121094 488.105469 279.417969 L 488.105469 399.5 C 488.105469 403.636719 488.679688 406.582031 489.839844 408.328125 C 491.023438 410.054688 493.257812 410.910156 496.5625 410.910156 C 499.21875 410.910156 501.453125 410.597656 503.28125 409.953125 Z M 394.386719 373.136719 C 394.386719 380.28125 395.578125 386.457031 397.96875 391.671875 C 400.378906 396.898438 403.738281 400.832031 408.050781 403.488281 C 412.378906 406.128906 417.1875 407.441406 422.488281 407.441406 C 426.625 407.441406 430.511719 406.777344 434.15625 405.445312 C 437.820312 404.117188 441.144531 402.214844 444.125 399.722656 L 444.125 346.550781 C 437.820312 341.40625 430.519531 338.832031 422.230469 338.832031 C 416.765625 338.832031 411.945312 340.160156 407.792969 342.820312 C 403.65625 345.460938 400.378906 349.394531 397.96875 354.636719 C 395.578125 359.863281 394.386719 366.027344 394.386719 373.136719 Z M 394.386719 373.136719 " fill-opacity="1" fill-rule="nonzero"/><path fill="#ffffff" d="M 543.550781 287.875 C 535.425781 287.875 529.203125 286.339844 524.902344 283.257812 C 520.589844 280.183594 518.441406 275.578125 518.441406 269.449219 C 518.441406 263.316406 520.589844 258.730469 524.902344 255.675781 C 529.203125 252.601562 535.425781 251.058594 543.550781 251.058594 C 551.496094 251.058594 557.664062 252.601562 562.050781 255.675781 C 566.453125 258.730469 568.660156 263.316406 568.660156 269.449219 C 568.660156 275.578125 566.453125 280.183594 562.050781 283.257812 C 557.664062 286.339844 551.496094 287.875 543.550781 287.875 Z M 553.742188 442.519531 C 546.597656 442.519531 540.667969 441.46875 535.941406 439.382812 C 531.234375 437.3125 527.644531 433.722656 525.160156 428.601562 C 522.667969 423.457031 521.429688 416.40625 521.429688 407.441406 L 521.429688 306.003906 C 523.574219 305.691406 526.167969 305.367188 529.222656 305.042969 C 532.296875 304.703125 535.25 304.527344 538.085938 304.527344 C 545.027344 304.527344 550.398438 305.191406 554.222656 306.519531 C 558.035156 307.832031 560.8125 310.175781 562.566406 313.574219 C 564.3125 316.972656 565.1875 321.828125 565.1875 328.125 L 565.1875 399.5 C 565.1875 403.636719 565.796875 406.582031 567.035156 408.328125 C 568.289062 410.054688 570.5625 410.910156 573.867188 410.910156 C 576.691406 410.910156 578.851562 410.597656 580.328125 409.953125 C 580.816406 411.605469 581.148438 413.183594 581.324219 414.679688 C 581.492188 416.15625 581.582031 417.726562 581.582031 419.367188 C 581.582031 427.667969 579.257812 433.722656 574.605469 437.535156 C 572.113281 439.53125 569.140625 440.859375 565.667969 441.523438 C 562.199219 442.1875 558.21875 442.519531 553.742188 442.519531 Z M 553.742188 442.519531 " fill-opacity="1" fill-rule="nonzero"/><path fill="#ffffff" d="M 678.03125 303.011719 C 688.8125 303.011719 698.636719 305.625 707.5 310.839844 C 716.359375 316.066406 723.394531 323.820312 728.621094 334.105469 C 733.835938 344.371094 736.449219 356.804688 736.449219 371.402344 C 736.449219 386.320312 733.753906 399.207031 728.363281 410.0625 C 722.988281 420.917969 715.742188 429.171875 706.613281 434.804688 C 697.5 440.433594 687.484375 443.257812 676.554688 443.257812 C 669.585938 443.257812 662.984375 442.050781 656.761719 439.640625 C 650.558594 437.230469 645.054688 433.714844 640.257812 429.078125 C 638.574219 433.390625 635.75 436.5 631.761719 438.421875 C 627.792969 440.316406 622.328125 441.265625 615.367188 441.265625 C 612.5625 441.265625 609.367188 441.136719 605.804688 440.894531 C 602.230469 440.648438 599.792969 440.351562 598.492188 440.011719 L 598.492188 257.039062 C 600.632812 256.699219 603.273438 256.402344 606.429688 256.152344 C 609.578125 255.914062 612.5625 255.785156 615.367188 255.785156 C 622.328125 255.785156 627.671875 256.449219 631.394531 257.777344 C 635.132812 259.109375 637.875 261.433594 639.628906 264.757812 C 641.371094 268.0625 642.25 272.945312 642.25 279.417969 L 642.25 315.457031 C 646.875 311.320312 652.257812 308.21875 658.386719 306.152344 C 664.515625 304.066406 671.0625 303.011719 678.03125 303.011719 Z M 664.109375 407.441406 C 669.574219 407.441406 674.421875 406.128906 678.660156 403.488281 C 682.886719 400.832031 686.203125 396.898438 688.59375 391.671875 C 691 386.457031 692.210938 380.28125 692.210938 373.136719 C 692.210938 365.675781 691 359.390625 688.59375 354.265625 C 686.203125 349.125 682.886719 345.277344 678.660156 342.710938 C 674.421875 340.125 669.574219 338.832031 664.109375 338.832031 C 655.8125 338.832031 648.527344 341.40625 642.25 346.550781 L 642.25 399.722656 C 648.527344 404.875 655.8125 407.441406 664.109375 407.441406 Z M 664.109375 407.441406 " fill-opacity="1" fill-rule="nonzero"/><path fill="#ffffff" d="M 860.503906 304.527344 C 867.464844 304.527344 872.8125 305.191406 876.53125 306.519531 C 880.269531 307.832031 883.003906 310.140625 884.730469 313.464844 C 886.472656 316.785156 887.351562 321.679688 887.351562 328.125 L 887.351562 414.898438 C 887.351562 439.4375 881.128906 457.511719 868.703125 469.109375 C 856.269531 480.703125 837.621094 486.5 812.757812 486.5 C 803.824219 486.5 795.664062 485.667969 788.277344 484.027344 C 780.890625 482.375 774.707031 480.304688 769.742188 477.824219 C 765.917969 475.996094 763.019531 473.878906 761.027344 471.472656 C 759.050781 469.050781 758.070312 466.199219 758.070312 462.902344 C 758.070312 456.921875 761.550781 449.039062 768.523438 439.269531 C 773.8125 442.910156 780.226562 446.101562 787.761719 448.835938 C 795.3125 451.566406 802.984375 452.933594 810.765625 452.933594 C 821.050781 452.933594 828.839844 450.535156 834.140625 445.734375 C 839.457031 440.933594 842.523438 433.316406 843.335938 422.875 C 838.699219 426.179688 833.363281 428.699219 827.308594 430.445312 C 821.253906 432.199219 814.660156 433.066406 807.554688 433.066406 C 792.136719 433.066406 780.042969 428.554688 771.253906 419.515625 C 762.464844 410.488281 758.070312 395.9375 758.070312 375.867188 L 758.070312 305.746094 C 760.214844 305.433594 762.855469 305.144531 766.011719 304.898438 C 769.160156 304.65625 772.066406 304.527344 774.726562 304.527344 C 781.6875 304.527344 787.066406 305.191406 790.863281 306.519531 C 794.675781 307.832031 797.453125 310.140625 799.207031 313.464844 C 800.953125 316.785156 801.828125 321.679688 801.828125 328.125 L 801.828125 371.660156 C 801.828125 388.554688 808.78125 396.992188 822.691406 396.992188 C 826.679688 396.992188 830.457031 396.253906 834.027344 394.773438 C 837.59375 393.28125 840.785156 391.285156 843.59375 388.792969 L 843.59375 305.746094 C 845.753906 305.433594 848.402344 305.144531 851.53125 304.898438 C 854.679688 304.65625 857.671875 304.527344 860.503906 304.527344 Z M 860.503906 304.527344 " fill-opacity="1" fill-rule="nonzero"/><path fill="#ffffff" d="M 1011.378906 397.988281 C 1017.1875 404.78125 1020.09375 411.335938 1020.09375 417.632812 C 1020.09375 421.132812 1019.375 424.242188 1017.953125 426.976562 C 1016.550781 429.707031 1014.601562 431.988281 1012.121094 433.804688 C 1008.324219 436.789062 1003.3125 439.105469 997.089844 440.75 C 990.886719 442.417969 984.628906 443.257812 978.332031 443.257812 C 944.996094 443.257812 928.332031 426.347656 928.332031 392.523438 L 928.332031 340.085938 L 904.480469 340.085938 C 904.15625 338.242188 903.90625 335.914062 903.742188 333.109375 C 903.566406 330.300781 903.480469 327.820312 903.480469 325.648438 C 903.480469 320.683594 903.933594 316.878906 904.847656 314.238281 C 905.753906 311.582031 907.40625 309.714844 909.796875 308.625 C 912.207031 307.546875 915.742188 307 920.394531 307 L 928.332031 307 L 928.332031 294.078125 C 928.332031 287.78125 929.15625 282.804688 930.808594 279.160156 C 932.476562 275.523438 935.175781 272.910156 938.894531 271.332031 C 942.632812 269.761719 947.738281 268.96875 954.21875 268.96875 C 956.703125 268.96875 959.683594 269.097656 963.15625 269.335938 C 966.625 269.585938 969.523438 269.882812 971.871094 270.222656 L 971.871094 307 L 1014.886719 307 C 1015.203125 308.652344 1015.488281 310.933594 1015.738281 313.832031 C 1015.976562 316.742188 1016.105469 319.351562 1016.105469 321.660156 C 1016.105469 326.636719 1015.644531 330.414062 1014.742188 332.996094 C 1013.828125 335.5625 1012.164062 337.382812 1009.757812 338.460938 C 1007.363281 339.550781 1003.847656 340.085938 999.195312 340.085938 L 971.871094 340.085938 L 971.871094 387.316406 C 971.871094 400.738281 977.75 407.441406 989.519531 407.441406 C 993.65625 407.441406 997.625 406.582031 1001.449219 404.855469 C 1005.261719 403.109375 1008.574219 400.820312 1011.378906 397.988281 Z M 1011.378906 397.988281 " fill-opacity="1" fill-rule="nonzero"/><path fill="#ffffff" d="M 1153.316406 395.773438 C 1156.316406 398.414062 1158.558594 401.441406 1160.039062 404.855469 C 1161.53125 408.253906 1162.289062 411.6875 1162.289062 415.160156 C 1162.289062 423.945312 1157.398438 430.5 1147.628906 434.804688 C 1142.800781 437.296875 1136.820312 439.316406 1129.683594 440.894531 C 1122.566406 442.464844 1114.875 443.257812 1106.605469 443.257812 C 1091.6875 443.257812 1078.746094 440.398438 1067.796875 434.691406 C 1056.867188 428.960938 1048.492188 420.835938 1042.6875 410.320312 C 1036.898438 399.789062 1034.007812 387.480469 1034.007812 373.394531 C 1034.007812 358.476562 1037.074219 345.765625 1043.203125 335.25 C 1049.332031 324.714844 1057.734375 316.714844 1068.421875 311.246094 C 1079.105469 305.765625 1091.328125 303.011719 1105.089844 303.011719 C 1116.539062 303.011719 1126.851562 304.765625 1136.035156 308.257812 C 1145.238281 311.726562 1152.542969 316.785156 1157.933594 323.433594 C 1163.324219 330.0625 1166.019531 337.925781 1166.019531 347.03125 C 1166.019531 359.953125 1160.867188 369.867188 1150.585938 376.753906 C 1140.320312 383.625 1124.820312 387.058594 1104.09375 387.058594 C 1095.15625 387.058594 1085.871094 386.152344 1076.25 384.324219 C 1080.554688 400.746094 1092.65625 408.953125 1112.550781 408.953125 C 1121.164062 408.953125 1128.78125 407.679688 1135.40625 405.113281 C 1142.054688 402.53125 1148.019531 399.417969 1153.316406 395.773438 Z M 1105.828125 333.847656 C 1101.195312 333.847656 1096.726562 334.808594 1092.425781 336.726562 C 1088.113281 338.628906 1084.421875 341.5625 1081.347656 345.550781 C 1078.292969 349.523438 1076.261719 354.488281 1075.253906 360.46875 C 1082.390625 361.800781 1090.109375 362.464844 1098.40625 362.464844 C 1107.832031 362.464844 1114.785156 361.382812 1119.269531 359.214844 C 1123.75 357.054688 1125.992188 353.324219 1125.992188 348.027344 C 1125.992188 343.722656 1124.117188 340.289062 1120.378906 337.722656 C 1116.660156 335.140625 1111.8125 333.847656 1105.828125 333.847656 Z M 1105.828125 333.847656 " fill-opacity="1" fill-rule="nonzero"/></svg>